<?xml version="1.0" standalone="no"?>
<!DOCTYPE svg PUBLIC "-//W3C//DTD SVG 20010904//EN"
 "http://www.w3.org/TR/2001/REC-SVG-20010904/DTD/svg10.dtd">
<svg version="1.0" xmlns="http://www.w3.org/2000/svg"
 width="194.000000pt" height="194.000000pt" viewBox="0 0 194.000000 194.000000"
 preserveAspectRatio="xMidYMid meet">
<metadata>
Created by potrace 1.11, written by Peter Selinger 2001-2013
</metadata>
<g transform="translate(0.000000,194.000000) scale(0.100000,-0.100000)"
fill="#000000" stroke="none">
<path d="M1056 1871 c-10 -11 -15 -31 -13 -52 2 -19 -1 -50 -6 -69 -8 -30 -62
-176 -87 -235 -20 -46 -72 -181 -75 -195 -4 -17 -270 -711 -287 -750 -7 -14
-12 -27 -13 -30 -1 -3 -7 -18 -13 -33 -7 -16 -12 -34 -12 -41 0 -7 -3 -16 -6
-19 -12 -11 -52 -117 -64 -166 -6 -26 -9 -59 -6 -73 11 -65 68 -148 101 -148
7 0 15 -4 17 -10 2 -5 30 -12 63 -14 64 -6 121 13 162 53 28 27 57 88 110 236
14 39 31 84 38 100 23 53 76 190 80 205 2 8 83 220 180 470 97 250 178 460
179 466 3 17 37 67 63 91 47 44 22 84 -87 142 -69 37 -157 67 -220 77 -25 3
-55 7 -67 9 -12 2 -28 -4 -37 -14z"/>
</g>
</svg>
